<svg width="24" height="24" viewBox="0 0 24 24" fill="none" xmlns="http://www.w3.org/2000/svg">
<path fill-rule="evenodd" clip-rule="evenodd" d="M16.2929 3.29289C16.6834 2.90237 17.3166 2.90237 17.7071 3.29289L20.7071 6.29289C21.0976 6.68342 21.0976 7.31658 20.7071 7.70711L7.70711 20.7071C7.51957 20.8946 7.26522 21 7 21H4C3.44772 21 3 20.5523 3 20V17C3 16.7348 3.10536 16.4804 3.29289 16.2929L16.2929 3.29289ZM15.4142 7L17 8.58579L18.5858 7L17 5.41421L15.4142 7ZM15.5858 10L14 8.41421L5 17.4142V19H6.58579L15.5858 10Z" fill="currentcolor"/>
</svg>
